# xmcd
#
# Track frame offsets:
#	150
#	14975
#	34434
#	48751
#	68984
#	88179
#	107277
#	127707
#	149021
#	165132
#	184724
#	204104
#	225911
#	247525
#	266080
#	287198
#	308026
#	325356
#
# Disc length: 4582 seconds
#
# Revision: 1
# Processed by: cddbd v1.5.2PL0 Copyright (c) Steve Scherf et al.
# Submitted via: audiograbber 1.83.01
#
DISCID=ef11e412
DTITLE=Kool and the Gang - The Album CD 1
DYEAR=2010
DGENRE=Funk
TTITLE0=Ladies Night feat. Atomic Kitten
TTITLE1=Get down on it feat. Blue and Lil`Kim
TTITLE2=Fresh  feat.  Leberty X
TTITLE3=Cherish feat. Ashanti
TTITLE4=Celebration feat. Lulu and London Community Gospel Chor
TTITLE5=Joanna feat. Blazin Squad
TTITLE6=Too Hot feat. Lisa Stanfield
TTITLE7=(Oh La La La) Let´s go dancing feat. Jimmy Cliff and Bounty Killers
TTITLE8=Straight ahead feat. Jamelia
TTITLE9=Steppin Out feat. Beverly Knight
TTITLE10=Hollywood Swinging feat. Jamiroquai
TTITLE11=Stressin
TTITLE12=Jones vs Jones feat. Angie Stone
TTITLE13=Summer Madness feat. Youssour N´Dour
TTITLE14=(Jump on the) Rythm an Ride
TTITLE15=I think i love you
TTITLE16=Love come down
TTITLE17=Pretty little sexy miss
EXTD=CD 1
EXTT0=
EXTT1=
EXTT2=
EXTT3=
EXTT4=
EXTT5=
EXTT6=
EXTT7=
EXTT8=
EXTT9=
EXTT10=
EXTT11=
EXTT12=
EXTT13=
EXTT14=
EXTT15=
EXTT16=
EXTT17=
PLAYORDER=
